<?xml version="1.0" standalone="no"?>
<!DOCTYPE svg PUBLIC "-//W3C//DTD SVG 20010904//EN"
  "http://www.w3.org/TR/2001/REC-SVG-20010904/DTD/svg10.dtd">
<svg width="16" height="16">
  <circle cx="0" cy="0" r="1" fill="srgba(96,125,255,1)"/>
  <circle cx="1" cy="0" r="1" fill="srgba(68,102,255,1)"/>
  <circle cx="2" cy="0" r="1" fill="srgba(68,104,255,1)"/>
  <circle cx="3" cy="0" r="1" fill="srgba(69,103,255,1)"/>
  <circle cx="4" cy="0" r="1" fill="srgba(68,103,255,1)"/>
  <circle cx="5" cy="0" r="1" fill="srgba(74,118,244,1)"/>
  <circle cx="6" cy="0" r="1" fill="srgba(84,147,201,1)"/>
  <circle cx="7" cy="0" r="1" fill="srgba(77,131,225,1)"/>
  <circle cx="8" cy="0" r="1" fill="srgba(70,109,254,1)"/>
  <circle cx="9" cy="0" r="1" fill="srgba(69,103,255,1)"/>
  <circle cx="10" cy="0" r="1" fill="srgba(69,103,255,1)"/>
  <circle cx="11" cy="0" r="1" fill="srgba(69,103,255,1)"/>
  <circle cx="12" cy="0" r="1" fill="srgba(71,102,251,1)"/>
  <circle cx="13" cy="0" r="1" fill="srgba(81,97,238,1)"/>
  <circle cx="14" cy="0" r="1" fill="srgba(68,104,255,1)"/>
  <circle cx="15" cy="0" r="1" fill="srgba(69,103,255,1)"/>
  <circle cx="0" cy="1" r="1" fill="srgba(107,82,196,1)"/>
  <circle cx="1" cy="1" r="1" fill="srgba(109,36,142,1)"/>
  <circle cx="2" cy="1" r="1" fill="srgba(75,56,198,1)"/>
  <circle cx="3" cy="1" r="1" fill="srgba(36,75,255,1)"/>
  <circle cx="4" cy="1" r="1" fill="srgba(60,76,224,1)"/>
  <circle cx="5" cy="1" r="1" fill="srgba(92,172,115,1)"/>
  <circle cx="6" cy="1" r="1" fill="srgba(104,230,30,1)"/>
  <circle cx="7" cy="1" r="1" fill="srgba(108,168,72,1)"/>
  <circle cx="8" cy="1" r="1" fill="srgba(80,126,181,1)"/>
  <circle cx="9" cy="1" r="1" fill="srgba(46,74,243,1)"/>
  <circle cx="10" cy="1" r="1" fill="srgba(42,72,246,1)"/>
  <circle cx="11" cy="1" r="1" fill="srgba(45,71,242,1)"/>
  <circle cx="12" cy="1" r="1" fill="srgba(75,56,197,1)"/>
  <circle cx="13" cy="1" r="1" fill="srgba(119,34,134,1)"/>
  <circle cx="14" cy="1" r="1" fill="srgba(75,57,200,1)"/>
  <circle cx="15" cy="1" r="1" fill="srgba(39,74,251,1)"/>
  <circle cx="0" cy="2" r="1" fill="srgba(135,70,157,1)"/>
  <circle cx="1" cy="2" r="1" fill="srgba(108,39,148,1)"/>
  <circle cx="2" cy="2" r="1" fill="srgba(121,35,133,1)"/>
  <circle cx="3" cy="2" r="1" fill="srgba(73,56,202,1)"/>
  <circle cx="4" cy="2" r="1" fill="srgba(122,82,95,1)"/>
  <circle cx="5" cy="2" r="1" fill="srgba(154,123,29,1)"/>
  <circle cx="6" cy="2" r="1" fill="srgba(180,135,33,1)"/>
  <circle cx="7" cy="2" r="1" fill="srgba(187,109,34,1)"/>
  <circle cx="8" cy="2" r="1" fill="srgba(148,139,75,1)"/>
  <circle cx="9" cy="2" r="1" fill="srgba(121,59,126,1)"/>
  <circle cx="10" cy="2" r="1" fill="srgba(125,32,129,1)"/>
  <circle cx="11" cy="2" r="1" fill="srgba(114,40,146,1)"/>
  <circle cx="12" cy="2" r="1" fill="srgba(122,36,135,1)"/>
  <circle cx="13" cy="2" r="1" fill="srgba(89,51,179,1)"/>
  <circle cx="14" cy="2" r="1" fill="srgba(124,35,131,1)"/>
  <circle cx="15" cy="2" r="1" fill="srgba(91,51,178,1)"/>
  <circle cx="0" cy="3" r="1" fill="srgba(136,69,154,1)"/>
  <circle cx="1" cy="3" r="1" fill="srgba(142,22,98,1)"/>
  <circle cx="2" cy="3" r="1" fill="srgba(118,35,132,1)"/>
  <circle cx="3" cy="3" r="1" fill="srgba(88,48,181,1)"/>
  <circle cx="4" cy="3" r="1" fill="srgba(103,129,122,1)"/>
  <circle cx="5" cy="3" r="1" fill="srgba(153,132,42,1)"/>
  <circle cx="6" cy="3" r="1" fill="srgba(154,53,54,1)"/>
  <circle cx="7" cy="3" r="1" fill="srgba(150,78,61,1)"/>
  <circle cx="8" cy="3" r="1" fill="srgba(123,117,80,1)"/>
  <circle cx="9" cy="3" r="1" fill="srgba(145,58,82,1)"/>
  <circle cx="10" cy="3" r="1" fill="srgba(144,23,102,1)"/>
  <circle cx="11" cy="3" r="1" fill="srgba(67,62,212,1)"/>
  <circle cx="12" cy="3" r="1" fill="srgba(81,56,193,1)"/>
  <circle cx="13" cy="3" r="1" fill="srgba(85,53,186,1)"/>
  <circle cx="14" cy="3" r="1" fill="srgba(98,47,167,1)"/>
  <circle cx="15" cy="3" r="1" fill="srgba(71,60,207,1)"/>
  <circle cx="0" cy="4" r="1" fill="srgba(124,75,172,1)"/>
  <circle cx="1" cy="4" r="1" fill="srgba(81,53,189,1)"/>
  <circle cx="2" cy="4" r="1" fill="srgba(111,39,145,1)"/>
  <circle cx="3" cy="4" r="1" fill="srgba(79,55,194,1)"/>
  <circle cx="4" cy="4" r="1" fill="srgba(116,57,129,1)"/>
  <circle cx="5" cy="4" r="1" fill="srgba(183,95,66,1)"/>
  <circle cx="6" cy="4" r="1" fill="srgba(188,119,84,1)"/>
  <circle cx="7" cy="4" r="1" fill="srgba(184,111,99,1)"/>
  <circle cx="8" cy="4" r="1" fill="srgba(155,74,101,1)"/>
  <circle cx="9" cy="4" r="1" fill="srgba(115,42,140,1)"/>
  <circle cx="10" cy="4" r="1" fill="srgba(103,44,158,1)"/>
  <circle cx="11" cy="4" r="1" fill="srgba(105,43,157,1)"/>
  <circle cx="12" cy="4" r="1" fill="srgba(112,39,144,1)"/>
  <circle cx="13" cy="4" r="1" fill="srgba(123,33,127,1)"/>
  <circle cx="14" cy="4" r="1" fill="srgba(144,23,97,1)"/>
  <circle cx="15" cy="4" r="1" fill="srgba(93,49,174,1)"/>
  <circle cx="0" cy="5" r="1" fill="srgba(77,99,244,1)"/>
  <circle cx="1" cy="5" r="1" fill="srgba(40,74,249,1)"/>
  <circle cx="2" cy="5" r="1" fill="srgba(53,69,232,1)"/>
  <circle cx="3" cy="5" r="1" fill="srgba(44,73,244,1)"/>
  <circle cx="4" cy="5" r="1" fill="srgba(38,73,253,1)"/>
  <circle cx="5" cy="5" r="1" fill="srgba(109,102,183,1)"/>
  <circle cx="6" cy="5" r="1" fill="srgba(235,131,90,1)"/>
  <circle cx="7" cy="5" r="1" fill="srgba(250,128,97,1)"/>
  <circle cx="8" cy="5" r="1" fill="srgba(169,126,127,1)"/>
  <circle cx="9" cy="5" r="1" fill="srgba(53,70,232,1)"/>
  <circle cx="10" cy="5" r="1" fill="srgba(44,73,244,1)"/>
  <circle cx="11" cy="5" r="1" fill="srgba(72,60,205,1)"/>
  <circle cx="12" cy="5" r="1" fill="srgba(74,57,198,1)"/>
  <circle cx="13" cy="5" r="1" fill="srgba(99,45,162,1)"/>
  <circle cx="14" cy="5" r="1" fill="srgba(131,30,118,1)"/>
  <circle cx="15" cy="5" r="1" fill="srgba(80,55,190,1)"/>
  <circle cx="0" cy="6" r="1" fill="srgba(69,103,255,1)"/>
  <circle cx="1" cy="6" r="1" fill="srgba(36,76,255,1)"/>
  <circle cx="2" cy="6" r="1" fill="srgba(37,77,255,1)"/>
  <circle cx="3" cy="6" r="1" fill="srgba(37,77,255,1)"/>
  <circle cx="4" cy="6" r="1" fill="srgba(37,77,255,1)"/>
  <circle cx="5" cy="6" r="1" fill="srgba(38,77,251,1)"/>
  <circle cx="6" cy="6" r="1" fill="srgba(100,91,126,1)"/>
  <circle cx="7" cy="6" r="1" fill="srgba(182,125,51,1)"/>
  <circle cx="8" cy="6" r="1" fill="srgba(71,71,119,1)"/>
  <circle cx="9" cy="6" r="1" fill="srgba(34,76,254,1)"/>
  <circle cx="10" cy="6" r="1" fill="srgba(37,77,255,1)"/>
  <circle cx="11" cy="6" r="1" fill="srgba(36,78,255,1)"/>
  <circle cx="12" cy="6" r="1" fill="srgba(37,77,255,1)"/>
  <circle cx="13" cy="6" r="1" fill="srgba(41,75,249,1)"/>
  <circle cx="14" cy="6" r="1" fill="srgba(84,54,187,1)"/>
  <circle cx="15" cy="6" r="1" fill="srgba(45,73,244,1)"/>
  <circle cx="0" cy="7" r="1" fill="srgba(69,103,255,1)"/>
  <circle cx="1" cy="7" r="1" fill="srgba(36,76,255,1)"/>
  <circle cx="2" cy="7" r="1" fill="srgba(38,77,255,1)"/>
  <circle cx="3" cy="7" r="1" fill="srgba(38,77,255,1)"/>
  <circle cx="4" cy="7" r="1" fill="srgba(38,77,255,1)"/>
  <circle cx="5" cy="7" r="1" fill="srgba(27,53,174,1)"/>
  <circle cx="6" cy="7" r="1" fill="srgba(18,8,35,1)"/>
  <circle cx="7" cy="7" r="1" fill="srgba(20,6,4,1)"/>
  <circle cx="8" cy="7" r="1" fill="srgba(15,8,29,1)"/>
  <circle cx="9" cy="7" r="1" fill="srgba(32,50,172,1)"/>
  <circle cx="10" cy="7" r="1" fill="srgba(37,73,249,1)"/>
  <circle cx="11" cy="7" r="1" fill="srgba(37,74,255,1)"/>
  <circle cx="12" cy="7" r="1" fill="srgba(37,76,255,1)"/>
  <circle cx="13" cy="7" r="1" fill="srgba(38,77,255,1)"/>
  <circle cx="14" cy="7" r="1" fill="srgba(37,77,255,1)"/>
  <circle cx="15" cy="7" r="1" fill="srgba(35,76,255,1)"/>
  <circle cx="0" cy="8" r="1" fill="srgba(69,103,255,1)"/>
  <circle cx="1" cy="8" r="1" fill="srgba(36,76,255,1)"/>
  <circle cx="2" cy="8" r="1" fill="srgba(38,77,255,1)"/>
  <circle cx="3" cy="8" r="1" fill="srgba(37,75,255,1)"/>
  <circle cx="4" cy="8" r="1" fill="srgba(52,116,211,1)"/>
  <circle cx="5" cy="8" r="1" fill="srgba(46,100,48,1)"/>
  <circle cx="6" cy="8" r="1" fill="srgba(93,0,65,1)"/>
  <circle cx="7" cy="8" r="1" fill="srgba(111,0,78,1)"/>
  <circle cx="8" cy="8" r="1" fill="srgba(90,0,62,1)"/>
  <circle cx="9" cy="8" r="1" fill="srgba(94,12,75,1)"/>
  <circle cx="10" cy="8" r="1" fill="srgba(68,131,117,1)"/>
  <circle cx="11" cy="8" r="1" fill="srgba(57,136,178,1)"/>
  <circle cx="12" cy="8" r="1" fill="srgba(41,87,240,1)"/>
  <circle cx="13" cy="8" r="1" fill="srgba(35,74,255,1)"/>
  <circle cx="14" cy="8" r="1" fill="srgba(40,77,249,1)"/>
  <circle cx="15" cy="8" r="1" fill="srgba(75,88,203,1)"/>
  <circle cx="0" cy="9" r="1" fill="srgba(69,103,255,1)"/>
  <circle cx="1" cy="9" r="1" fill="srgba(36,76,255,1)"/>
  <circle cx="2" cy="9" r="1" fill="srgba(38,77,255,1)"/>
  <circle cx="3" cy="9" r="1" fill="srgba(37,74,255,1)"/>
  <circle cx="4" cy="9" r="1" fill="srgba(66,160,144,1)"/>
  <circle cx="5" cy="9" r="1" fill="srgba(81,208,15,1)"/>
  <circle cx="6" cy="9" r="1" fill="srgba(48,35,29,1)"/>
  <circle cx="7" cy="9" r="1" fill="srgba(43,0,30,1)"/>
  <circle cx="8" cy="9" r="1" fill="srgba(33,0,24,1)"/>
  <circle cx="9" cy="9" r="1" fill="srgba(60,20,43,1)"/>
  <circle cx="10" cy="9" r="1" fill="srgba(75,140,94,1)"/>
  <circle cx="11" cy="9" r="1" fill="srgba(74,186,105,1)"/>
  <circle cx="12" cy="9" r="1" fill="srgba(76,186,92,1)"/>
  <circle cx="13" cy="9" r="1" fill="srgba(86,130,160,1)"/>
  <circle cx="14" cy="9" r="1" fill="srgba(160,129,116,1)"/>
  <circle cx="15" cy="9" r="1" fill="srgba(206,151,68,1)"/>
  <circle cx="0" cy="10" r="1" fill="srgba(69,103,255,1)"/>
  <circle cx="1" cy="10" r="1" fill="srgba(36,76,255,1)"/>
  <circle cx="2" cy="10" r="1" fill="srgba(38,77,255,1)"/>
  <circle cx="3" cy="10" r="1" fill="srgba(37,75,255,1)"/>
  <circle cx="4" cy="10" r="1" fill="srgba(61,106,180,1)"/>
  <circle cx="5" cy="10" r="1" fill="srgba(96,228,12,1)"/>
  <circle cx="6" cy="10" r="1" fill="srgba(54,148,0,1)"/>
  <circle cx="7" cy="10" r="1" fill="srgba(10,7,12,1)"/>
  <circle cx="8" cy="10" r="1" fill="srgba(61,1,41,1)"/>
  <circle cx="9" cy="10" r="1" fill="srgba(76,1,40,1)"/>
  <circle cx="10" cy="10" r="1" fill="srgba(62,37,150,1)"/>
  <circle cx="11" cy="10" r="1" fill="srgba(75,97,214,1)"/>
  <circle cx="12" cy="10" r="1" fill="srgba(158,169,102,1)"/>
  <circle cx="13" cy="10" r="1" fill="srgba(217,194,60,1)"/>
  <circle cx="14" cy="10" r="1" fill="srgba(207,147,64,1)"/>
  <circle cx="15" cy="10" r="1" fill="srgba(77,89,208,1)"/>
  <circle cx="0" cy="11" r="1" fill="srgba(69,103,255,1)"/>
  <circle cx="1" cy="11" r="1" fill="srgba(36,76,255,1)"/>
  <circle cx="2" cy="11" r="1" fill="srgba(37,77,255,1)"/>
  <circle cx="3" cy="11" r="1" fill="srgba(42,71,240,1)"/>
  <circle cx="4" cy="11" r="1" fill="srgba(73,18,94,1)"/>
  <circle cx="5" cy="11" r="1" fill="srgba(83,75,26,1)"/>
  <circle cx="6" cy="11" r="1" fill="srgba(88,200,8,1)"/>
  <circle cx="7" cy="11" r="1" fill="srgba(79,117,26,1)"/>
  <circle cx="8" cy="11" r="1" fill="srgba(85,16,39,1)"/>
  <circle cx="9" cy="11" r="1" fill="srgba(95,22,40,1)"/>
  <circle cx="10" cy="11" r="1" fill="srgba(155,125,103,1)"/>
  <circle cx="11" cy="11" r="1" fill="srgba(201,176,108,1)"/>
  <circle cx="12" cy="11" r="1" fill="srgba(176,152,133,1)"/>
  <circle cx="13" cy="11" r="1" fill="srgba(139,120,161,1)"/>
  <circle cx="14" cy="11" r="1" fill="srgba(114,109,171,1)"/>
  <circle cx="15" cy="11" r="1" fill="srgba(37,76,254,1)"/>
  <circle cx="0" cy="12" r="1" fill="srgba(69,103,255,1)"/>
  <circle cx="1" cy="12" r="1" fill="srgba(36,76,255,1)"/>
  <circle cx="2" cy="12" r="1" fill="srgba(37,77,255,1)"/>
  <circle cx="3" cy="12" r="1" fill="srgba(42,69,234,1)"/>
  <circle cx="4" cy="12" r="1" fill="srgba(72,11,70,1)"/>
  <circle cx="5" cy="12" r="1" fill="srgba(85,8,46,1)"/>
  <circle cx="6" cy="12" r="1" fill="srgba(101,67,60,1)"/>
  <circle cx="7" cy="12" r="1" fill="srgba(122,150,24,1)"/>
  <circle cx="8" cy="12" r="1" fill="srgba(206,132,33,1)"/>
  <circle cx="9" cy="12" r="1" fill="srgba(130,91,70,1)"/>
  <circle cx="10" cy="12" r="1" fill="srgba(172,123,76,1)"/>
  <circle cx="11" cy="12" r="1" fill="srgba(136,87,112,1)"/>
  <circle cx="12" cy="12" r="1" fill="srgba(61,74,224,1)"/>
  <circle cx="13" cy="12" r="1" fill="srgba(35,75,255,1)"/>
  <circle cx="14" cy="12" r="1" fill="srgba(36,77,255,1)"/>
  <circle cx="15" cy="12" r="1" fill="srgba(38,77,255,1)"/>
  <circle cx="0" cy="13" r="1" fill="srgba(69,103,255,1)"/>
  <circle cx="1" cy="13" r="1" fill="srgba(36,76,255,1)"/>
  <circle cx="2" cy="13" r="1" fill="srgba(38,77,255,1)"/>
  <circle cx="3" cy="13" r="1" fill="srgba(39,75,252,1)"/>
  <circle cx="4" cy="13" r="1" fill="srgba(66,25,113,1)"/>
  <circle cx="5" cy="13" r="1" fill="srgba(102,24,62,1)"/>
  <circle cx="6" cy="13" r="1" fill="srgba(179,112,166,1)"/>
  <circle cx="7" cy="13" r="1" fill="srgba(100,73,83,1)"/>
  <circle cx="8" cy="13" r="1" fill="srgba(153,161,105,1)"/>
  <circle cx="9" cy="13" r="1" fill="srgba(106,119,127,1)"/>
  <circle cx="10" cy="13" r="1" fill="srgba(81,6,41,1)"/>
  <circle cx="11" cy="13" r="1" fill="srgba(70,13,78,1)"/>
  <circle cx="12" cy="13" r="1" fill="srgba(43,63,219,1)"/>
  <circle cx="13" cy="13" r="1" fill="srgba(37,77,255,1)"/>
  <circle cx="14" cy="13" r="1" fill="srgba(38,77,255,1)"/>
  <circle cx="15" cy="13" r="1" fill="srgba(38,77,255,1)"/>
  <circle cx="0" cy="14" r="1" fill="srgba(69,103,255,1)"/>
  <circle cx="1" cy="14" r="1" fill="srgba(36,76,255,1)"/>
  <circle cx="2" cy="14" r="1" fill="srgba(38,77,255,1)"/>
  <circle cx="3" cy="14" r="1" fill="srgba(37,78,255,1)"/>
  <circle cx="4" cy="14" r="1" fill="srgba(56,55,203,1)"/>
  <circle cx="5" cy="14" r="1" fill="srgba(81,11,69,1)"/>
  <circle cx="6" cy="14" r="1" fill="srgba(83,21,54,1)"/>
  <circle cx="7" cy="14" r="1" fill="srgba(73,55,88,1)"/>
  <circle cx="8" cy="14" r="1" fill="srgba(87,139,233,1)"/>
  <circle cx="9" cy="14" r="1" fill="srgba(86,89,169,1)"/>
  <circle cx="10" cy="14" r="1" fill="srgba(73,15,79,1)"/>
  <circle cx="11" cy="14" r="1" fill="srgba(53,47,168,1)"/>
  <circle cx="12" cy="14" r="1" fill="srgba(38,75,251,1)"/>
  <circle cx="13" cy="14" r="1" fill="srgba(38,77,255,1)"/>
  <circle cx="14" cy="14" r="1" fill="srgba(38,77,255,1)"/>
  <circle cx="15" cy="14" r="1" fill="srgba(38,77,255,1)"/>
  <circle cx="0" cy="15" r="1" fill="srgba(69,103,255,1)"/>
  <circle cx="1" cy="15" r="1" fill="srgba(36,76,255,1)"/>
  <circle cx="2" cy="15" r="1" fill="srgba(38,77,255,1)"/>
  <circle cx="3" cy="15" r="1" fill="srgba(37,77,255,1)"/>
  <circle cx="4" cy="15" r="1" fill="srgba(40,76,253,1)"/>
  <circle cx="5" cy="15" r="1" fill="srgba(50,45,168,1)"/>
  <circle cx="6" cy="15" r="1" fill="srgba(62,18,75,1)"/>
  <circle cx="7" cy="15" r="1" fill="srgba(59,34,125,1)"/>
  <circle cx="8" cy="15" r="1" fill="srgba(43,75,247,1)"/>
  <circle cx="9" cy="15" r="1" fill="srgba(52,92,235,1)"/>
  <circle cx="10" cy="15" r="1" fill="srgba(45,70,235,1)"/>
  <circle cx="11" cy="15" r="1" fill="srgba(38,77,254,1)"/>
  <circle cx="12" cy="15" r="1" fill="srgba(38,77,255,1)"/>
  <circle cx="13" cy="15" r="1" fill="srgba(38,77,255,1)"/>
  <circle cx="14" cy="15" r="1" fill="srgba(38,77,255,1)"/>
  <circle cx="15" cy="15" r="1" fill="srgba(38,77,255,1)"/>
</svg>
